HIERARCHY
ROOT Hips
{
	OFFSET -14.64140 90.27770 -84.91600
	CHANNELS 6 Xposition Yposition Zposition Zrotation Xrotation Yrotation
	JOINT Spine
	{
		OFFSET 0.00000 13.20850 -1.60436
		CHANNELS 3 Zrotation Xrotation Yrotation
		JOINT Spine1
		{
			OFFSET 0.00000 8.61716 0.00000
			CHANNELS 3 Zrotation Xrotation Yrotation
			JOINT Spine2
			{
				OFFSET 0.00000 8.61717 0.00000
				CHANNELS 3 Zrotation Xrotation Yrotation
				JOINT Spine3
				{
					OFFSET 0.00000 8.61717 0.00000
					CHANNELS 3 Zrotation Xrotation Yrotation
					JOINT Neck
					{
						OFFSET 0.00000 11.07920 1.10792
						CHANNELS 3 Zrotation Xrotation Yrotation
						JOINT Neck1
						{
							OFFSET 0.00000 7.08032 0.00000
							CHANNELS 3 Zrotation Xrotation Yrotation
							JOINT Head
							{
								OFFSET 0.00000 7.08031 0.00000
								CHANNELS 3 Zrotation Xrotation Yrotation
								End site
								{
									OFFSET 0.00000 0.00000 0.00000
								}
							}
						}
					}
					JOINT RightShoulder
					{
						OFFSET -0.01000 7.91373 5.19711
						CHANNELS 3 Zrotation Xrotation Yrotation
						JOINT RightArm
						{
							OFFSET -18.41580 0.00000 0.00000
							CHANNELS 3 Zrotation Xrotation Yrotation
							JOINT RightForeArm
							{
								OFFSET -29.11090 0.00000 0.00000
								CHANNELS 3 Zrotation Xrotation Yrotation
								JOINT RightHand
								{
									OFFSET -24.65040 0.00000 0.00000
									CHANNELS 3 Zrotation Xrotation Yrotation
									JOINT RightHandThumb1
									{
										OFFSET -5.35114 -0.85590 3.97906
										CHANNELS 3 Zrotation Xrotation Yrotation
										JOINT RightHandThumb2
										{
											OFFSET -4.52789 0.00000 0.00000
											CHANNELS 3 Zrotation Xrotation Yrotation
											JOINT RightHandThumb3
											{
												OFFSET -2.46976 0.00000 0.00000
												CHANNELS 3 Zrotation Xrotation Yrotation
												End site
												{
													OFFSET 0.00000 0.00000 0.00000
												}
											}
										}
									}
									JOINT RightHandIndex1
									{
										OFFSET -14.26970 0.00000 2.88139
										CHANNELS 3 Zrotation Xrotation Yrotation
										JOINT RightHandIndex2
										{
											OFFSET -5.48836 0.00000 0.00000
											CHANNELS 3 Zrotation Xrotation Yrotation
											JOINT RightHandIndex3
											{
												OFFSET -3.01859 0.00000 0.00000
												CHANNELS 3 Zrotation Xrotation Yrotation
												End site
												{
													OFFSET 0.00000 0.00000 0.00000
												}
											}
										}
									}
									JOINT RightHandMiddle1
									{
										OFFSET -14.26970 0.00000 -0.09147
										CHANNELS 3 Zrotation Xrotation Yrotation
										JOINT RightHandMiddle2
										{
											OFFSET -6.17441 0.00000 0.00000
											CHANNELS 3 Zrotation Xrotation Yrotation
											JOINT RightHandMiddle3
											{
												OFFSET -3.56743 0.00000 0.00000
												CHANNELS 3 Zrotation Xrotation Yrotation
												End site
												{
													OFFSET 0.00000 0.00000 0.00000
												}
											}
										}
									}
									JOINT RightHandRing1
									{
										OFFSET -12.69180 0.00000 -3.06433
										CHANNELS 3 Zrotation Xrotation Yrotation
										JOINT RightHandRing2
										{
											OFFSET -5.62556 0.00000 0.00000
											CHANNELS 3 Zrotation Xrotation Yrotation
											JOINT RightHandRing3
											{
												OFFSET -3.56744 0.00000 0.00000
												CHANNELS 3 Zrotation Xrotation Yrotation
												End site
												{
													OFFSET 0.00000 0.00000 0.00000
												}
											}
										}
									}
									JOINT RightHandPinky1
									{
										OFFSET -11.11390 0.00000 -6.03719
										CHANNELS 3 Zrotation Xrotation Yrotation
										JOINT RightHandPinky2
										{
											OFFSET -4.52789 0.00000 0.00000
											CHANNELS 3 Zrotation Xrotation Yrotation
											JOINT RightHandPinky3
											{
												OFFSET -2.46976 0.00000 0.00000
												CHANNELS 3 Zrotation Xrotation Yrotation
												End site
												{
													OFFSET 0.00000 0.00000 0.00000
												}
											}
										}
									}
								}
							}
						}
					}
					JOINT LeftShoulder
					{
						OFFSET 0.01000 7.91373 5.19711
						CHANNELS 3 Zrotation Xrotation Yrotation
						JOINT LeftArm
						{
							OFFSET 18.41580 0.00000 0.00000
							CHANNELS 3 Zrotation Xrotation Yrotation
							JOINT LeftForeArm
							{
								OFFSET 29.11090 0.00000 0.00000
								CHANNELS 3 Zrotation Xrotation Yrotation
								JOINT LeftHand
								{
									OFFSET 24.65040 0.00000 0.00000
									CHANNELS 3 Zrotation Xrotation Yrotation
									JOINT LeftHandThumb1
									{
										OFFSET 5.35114 -0.85590 3.97906
										CHANNELS 3 Zrotation Xrotation Yrotation
										JOINT LeftHandThumb2
										{
											OFFSET 4.52789 0.00000 0.00000
											CHANNELS 3 Zrotation Xrotation Yrotation
											JOINT LeftHandThumb3
											{
												OFFSET 2.46977 0.00000 0.00000
												CHANNELS 3 Zrotation Xrotation Yrotation
												End site
												{
													OFFSET 0.00000 0.00000 0.00000
												}
											}
										}
									}
									JOINT LeftHandIndex1
									{
										OFFSET 14.26970 0.00000 2.88139
										CHANNELS 3 Zrotation Xrotation Yrotation
										JOINT LeftHandIndex2
										{
											OFFSET 5.48836 0.00000 0.00000
											CHANNELS 3 Zrotation Xrotation Yrotation
											JOINT LeftHandIndex3
											{
												OFFSET 3.01859 0.00000 0.00000
												CHANNELS 3 Zrotation Xrotation Yrotation
												End site
												{
													OFFSET 0.00000 0.00000 0.00000
												}
											}
										}
									}
									JOINT LeftHandMiddle1
									{
										OFFSET 14.26970 0.00000 -0.09147
										CHANNELS 3 Zrotation Xrotation Yrotation
										JOINT LeftHandMiddle2
										{
											OFFSET 6.17440 0.00000 0.00000
											CHANNELS 3 Zrotation Xrotation Yrotation
											JOINT LeftHandMiddle3
											{
												OFFSET 3.56744 0.00000 0.00000
												CHANNELS 3 Zrotation Xrotation Yrotation
												End site
												{
													OFFSET 0.00000 0.00000 0.00000
												}
											}
										}
									}
									JOINT LeftHandRing1
									{
										OFFSET 12.69180 0.00000 -3.06433
										CHANNELS 3 Zrotation Xrotation Yrotation
										JOINT LeftHandRing2
										{
											OFFSET 5.62556 0.00000 0.00000
											CHANNELS 3 Zrotation Xrotation Yrotation
											JOINT LeftHandRing3
											{
												OFFSET 3.56744 0.00000 0.00000
												CHANNELS 3 Zrotation Xrotation Yrotation
												End site
												{
													OFFSET 0.00000 0.00000 0.00000
												}
											}
										}
									}
									JOINT LeftHandPinky1
									{
										OFFSET 11.11390 0.00000 -6.03719
										CHANNELS 3 Zrotation Xrotation Yrotation
										JOINT LeftHandPinky2
										{
											OFFSET 4.52789 0.00000 0.00000
											CHANNELS 3 Zrotation Xrotation Yrotation
											JOINT LeftHandPinky3
											{
												OFFSET 2.46976 0.00000 0.00000
												CHANNELS 3 Zrotation Xrotation Yrotation
												End site
												{
													OFFSET 0.00000 0.00000 0.00000
												}
											}
										}
									}
								}
							}
						}
					}
					JOINT pCube4
					{
						OFFSET 0.00000 10.91090 1.10792
						CHANNELS 3 Zrotation Xrotation Yrotation
						End site
						{
							OFFSET 0.00000 0.00000 0.00000
						}
					}
				}
			}
		}
	}
	JOINT RightUpLeg
	{
		OFFSET -9.98441 0.00000 0.00000
		CHANNELS 3 Zrotation Xrotation Yrotation
		JOINT RightLeg
		{
			OFFSET 0.00000 -42.11790 0.00000
			CHANNELS 3 Zrotation Xrotation Yrotation
			JOINT RightFoot
			{
				OFFSET 0.00000 -45.00020 -0.00001
				CHANNELS 3 Zrotation Xrotation Yrotation
				JOINT RightForeFoot
				{
					OFFSET 0.00000 -3.74820 0.00000
					CHANNELS 3 Zrotation Xrotation Yrotation
					JOINT RightToeBase
					{
						OFFSET 0.00000 0.06325 14.43120
						CHANNELS 3 Zrotation Xrotation Yrotation
						End site
						{
							OFFSET 0.00000 0.00000 0.00000
						}
					}
				}
			}
		}
	}
	JOINT LeftUpLeg
	{
		OFFSET 9.98441 0.00000 0.00000
		CHANNELS 3 Zrotation Xrotation Yrotation
		JOINT LeftLeg
		{
			OFFSET 0.00000 -42.11800 0.00000
			CHANNELS 3 Zrotation Xrotation Yrotation
			JOINT LeftFoot
			{
				OFFSET 0.00000 -45.00070 0.00000
				CHANNELS 3 Zrotation Xrotation Yrotation
				JOINT LeftForeFoot
				{
					OFFSET 0.00000 -3.74824 0.00000
					CHANNELS 3 Zrotation Xrotation Yrotation
					JOINT LeftToeBase
					{
						OFFSET 0.00000 0.06325 14.43110
						CHANNELS 3 Zrotation Xrotation Yrotation
						End site
						{
							OFFSET 0.00000 0.00000 0.00000
						}
					}
				}
			}
		}
	}
}
MOTION
Frames: 4
Frame Time: 0.050000
0.025876833411963382 -0.015038546040697418 -0.0024249057508823183 0.023552977149566896 0.033459397506398814 0.04895920822323413 1.2371711628650077 3.579188523569261 -1.432336469322397 -0.6082046717733057 3.7337316472782347 0.34835774246929996 -0.7638473148576395 -1.2002313636868012 1.4502309167934928 -0.5213636826946786 -0.87507739749588 -0.3151959569975282 0.3658564480336521 11.886999101922367 -2.2182497598181246 0.15786360555337045 -1.6409568154615903 -6.9153186144738195 1.0966834544550432 -17.970163815914947 -0.6175801050334073 -6.7649001595370715 2.5527816412715714 -16.1519992991379 75.60596346576541 -23.160200379363786 19.176309663346977 25.36195151494954 -1.9605605904861805 86.74825646212511 11.06825706266797 -0.30711340843653423 -1.497921384172241 4.548589358521405 -0.16518624005983273 -1.6165811540702089 0.031340920355725305 -0.04765344830652936 -56.22127338218632 0.011358216921596002 -0.040547308473964795 -56.27716036423529 -38.76608878363265 0.010248003614539954 -0.03598036395512403 0.02415988341323382 -0.035177249803822835 0.012841810332289661 -0.023005378453683674 -0.04208630339452173 0.005789527072772319 -36.653057812480384 -0.008406744748925204 0.03286210878188807 -0.02348193948287573 0.007066560081133913 -0.00946301049330741 -0.01512530072581454 0.01420552308254107 -0.007475406637165984 -19.761233942096606 -0.025911389079268113 0.03235583074936357 -0.0167374131151544 -0.03501711262716637 0.04054799679383249 0.013058378442960632 0.002774095472144802 -0.04951740237636355 24.101496800682725 0.036380669594180105 0.03944017896541766 28.87063608823958 -0.0012010902114576898 -0.04668146701604382 28.83205746650335 0.03227180004677547 -0.030630770083150422 5.393339734168443 1.6121832007546173 14.609211987117291 -72.87157454983512 -1.550348041563062 -10.074495395150839 11.503970894271621 -10.130406814420695 -73.1814821624733 -9.389386469586729 11.564458258580544 -10.991761096839824 -0.47397211858727484 0.08174910108863456 -8.120906145733123 -0.00841961944337959 0.01670019083592316 44.587486369159635 -0.018721957201992177 0.014282564848463908 44.59352356435639 12.443228505483964 0.01876956256725494 -0.021051710198935026 -0.028392056808659357 -0.0040181111108565535 0.02896440397938956 0.02253968207944045 0.02692753100279394 0.026479490303863304 11.115870809345994 -0.028648579950116524 0.0008059499513908025 0.03704378528046721 -0.03984741894521619 0.0032017154115532723 0.0171639743473018 0.03896400932421331 0.006735183144765751 4.742241235649306 0.02704925677712087 -0.03024137048038005 0.04310178550999282 -0.04248422889309125 -0.007860615260976178 -0.04996604696132859 0.02437375058660404 -0.0268836308628001 -5.610348153022348 -0.0006147830624550554 0.004068385497087546 -6.739428368608464 0.023026344704363287 -0.01771644551483208 -6.7293974678101005 0.021445336713318726 -0.0063603843900810015 -0.04359251418802226 -0.01525442593515475 -0.0033147768514247312 8.069731972140262 3.5402626534023733 -19.24362743477422 0.007401578880188898 10.358922093590087 0.04835251933261164 -5.642316201366834 -15.639591498160154 3.1990334166013925 0.010113551522668624 -0.015199179897587626 -0.02492155028765163 -0.007144894490201818 4.698910781993592 -0.01647342386655147 12.485831454662298 -8.258872966158801 6.872807167327017 0.0024455771864570594 46.38955960214687 -0.02386518724489211 -4.368798295640084 -14.792644680454519 -3.879500508245172 -0.020747822137885907 0.03451911066306548 -0.005171463118414997 -0.008732018729393533 -10.70781557102778 0.014553161825743042 
0.023775253033093496 0.018701508742010427 0.019489990496408906 -0.038634905094795585 -0.015941282469011327 0.04825929460417878 1.652277049418455 3.6125817730444227 -1.5268738804221043 -0.6662760072532442 3.707274229366101 0.345445913468994 -0.8337652685519458 -1.1468137685687034 1.7047075378752743 -0.448040154089356 -0.8421366361345223 -0.24437868900207782 0.4669478591200107 11.976195852226434 -2.258819008198234 0.18706077605838592 -1.5362029922048122 -7.263573606387669 1.1472013781848898 -17.921003077095722 -0.6601047265089861 -7.682082238185259 2.833989370824252 -16.31469284372193 75.20263985874627 -22.98969312103948 21.80326938437759 23.071171682530924 -3.365991914833896 89.32046881636478 9.212575326156667 -0.28371476671218143 -0.9841744550754757 4.509955796230389 -0.11093259083194326 -1.5736382765971189 -0.002266411529728878 0.016782257979044528 -56.221790079753546 0.03758892897848773 0.04101853831755703 -56.23027041135026 -38.7348477497485 -0.013464571535386142 -0.03149429286800696 -0.031298269852032386 -0.029869472820216948 -0.035290315983359064 -0.026475394494000663 -0.0467218626264088 0.03974809659566539 -36.69934713856555 0.03375358603234035 0.041550133967197575 -0.00013872322763576844 0.018082997275211465 -0.042264790503232924 -0.021892536706878064 0.03894569054143467 -0.012636503609552176 -19.738978245031646 -0.0032983282492858677 0.008492948358935179 -0.011263639965476748 -0.02620002054975609 0.045183553422148214 -0.031562554467767664 -0.028229864166482647 0.017250879814610903 24.05613576749384 -0.011578350833132219 0.0453929469320438 28.89096428445205 -0.01448297533523847 0.00782799735824887 28.877992519835416 -0.043902558564006 0.0032698676481968426 5.694856144090978 1.6545286646739785 14.63043114133172 -71.88676708999238 0.7104818333146441 -9.536318307128502 14.556386583304914 -13.890127159002681 -78.21013455154382 -7.4675349923246745 9.211819237068823 -10.542572734484729 -0.5125618328263046 0.10201275383722704 -8.16197742338618 -0.02660055365107102 -0.01260079530317038 44.52238168028658 -0.009241878198150569 -0.03737233538991577 44.602785956992186 12.446247860230672 0.03571628075701639 0.03747929687873897 0.02610284903008414 0.002024833936083187 -0.02670948963529998 -0.0018082735471809444 0.03473815359846641 -0.04315549397752019 11.098853296904707 -0.033332185665907024 0.030680770694282055 -0.030644169905193547 0.012258023382336967 -0.005840944929534453 0.022106058723691452 -0.04078519390984841 -0.021413522082780696 4.7941326301206075 -0.006668420149535095 -0.031407858585376904 0.020720139511686716 -0.01188065883846552 0.04405124297670761 -0.024183330826216733 -0.015704738377868743 -0.04160350100304268 -5.632221648173507 -0.049070503331373416 -0.00550310176076095 -6.759675879792885 -0.04390032898720125 -0.015438600802133906 -6.759463724128572 0.014485636463016467 -0.009576201437230246 -0.026551914550695044 0.02272779811215005 -0.016518967662340497 8.072790140442766 3.4766317696929967 -19.19994668819031 0.028861208784801803 10.358520002887449 0.028003846342052344 -5.582303753068288 -15.645747556725619 3.195346367768238 0.014528341807428855 -0.002911653670075906 -0.03505104906500049 -0.0021427413780649917 4.729086405442294 0.016659556925369187 12.456172309160639 -8.276654543708021 6.921833152892812 0.029046764141250448 46.4072449998019 -0.04014173778997823 -4.279574060430584 -14.786966115636845 -3.8690281326806657 -0.006796181966891227 -0.028803659683309148 0.023003553382193814 0.04876594603454743 -10.755137932808989 -0.035527992297321134 
-0.009024257413728752 -0.0036400188740808312 -0.021798746056773764 0.01324371230485677 -0.005580579490702922 0.04092937525562498 1.865809664241492 3.655918623130692 -1.4837441731791443 -0.7469680867187721 3.724023807343508 0.3897108910659183 -0.8146601495365616 -1.1152854303555397 1.9890194638731689 -0.5044207966755139 -0.7758113254059538 -0.28594088702686166 0.5301358311294732 12.19082005834423 -2.231805592121692 0.15583276182851902 -1.3949483296160698 -7.351618513870462 1.13861051636545 -17.795256325627722 -0.6279933178528111 -8.729097090391718 3.0626505097836727 -16.45951245834725 75.01403861195075 -24.94722541705588 25.542690371482283 21.60225152394778 -4.6792859938033375 91.2340409025198 7.851111744135778 -0.22225652618148173 -0.4295520642431461 4.568770264150617 -0.09632619752292317 -1.6319742583796044 -0.009677607345359484 0.00987855131428357 -56.18659426202167 -0.029686346682013504 -0.0023531145242043417 -56.24369285082044 -38.799117962900105 -0.04264048494392495 0.026646505049414324 -0.0010551483651410234 0.035594180529087624 -0.012882038085100174 -0.020206880880351698 0.04982459128348764 -0.019107926108984596 -36.64774324027383 0.03986563259472407 0.007478262421296467 -0.004055024042076766 -0.014136571003844363 0.008181498404957814 -0.010727737152997555 0.035034170873919225 -0.025186867417073766 -19.768690142201145 0.021810294911780163 0.0080622588116545 0.049257069925379426 -0.03484895399582991 0.02715370267213418 -0.027369733197863684 -0.039311950970962795 -0.048313813843679734 24.03003224854986 -0.002702945711916902 -0.03198065028828925 28.900345204522814 -0.005520295267064152 0.04634716219564854 28.914722286265537 -0.044233903058119584 -0.013333902356906483 6.164195212514554 1.6422190401020016 14.834154584482478 -71.42957902379689 0.1483701063227446 -9.456130187806297 15.439308858666253 -15.007851488552404 -80.95315223247354 -6.304920067237524 8.096777566693452 -10.563833803369047 -0.4630883102411566 0.06559027645426405 -8.073846708736589 -0.0361812687229879 -0.03991681939825698 44.58748076011588 -0.04650303203981869 0.022655585337588154 44.61073727654962 12.419188818216641 0.026561324573879372 0.023333254455937973 -0.004937094013616793 -0.029532655222858993 0.03223462610659308 -0.007131232676874101 -0.028504957386680314 0.04241125962779128 11.107473707626566 0.04489846988507293 -0.04267250850934482 -0.04598670089886372 0.018137526023461754 0.0037734526940062796 0.020783958332934897 -0.0064393066802959815 0.005633512075446628 4.761674488585632 -0.03620878335540271 0.04731829782185857 -0.026391816043863855 -0.037379085599166646 -0.008761855644057275 -0.016770752855532513 0.01712118525260905 0.04684896308819232 -5.600580270828092 -0.038916872634430826 -0.03666227326711223 -6.709736475841981 -0.04461387774148797 -0.006563414281541079 -6.707978719472847 0.03000907881729913 -0.040738031399916975 -0.045304858412325566 0.022879013485203572 0.000391436846075862 8.062513009541183 3.5089887307019385 -19.220683742817172 0.028704296022185414 10.391067542908651 -0.012405945862777278 -5.599513546028167 -15.677794645748902 3.153355043432498 0.044007941695770235 0.03367852812977986 -0.005253170911778163 0.04856100882932638 4.709991614314002 -0.0025065867815830074 12.423228572134533 -8.246166273756804 6.854545259374611 0.01487715631104841 46.34208092260482 0.020744465594421745 -4.306810725869844 -14.73953180446333 -3.8212568765631594 0.03776243495515581 0.008934669315770532 -0.03369912415983039 -0.0025657534000890206 -10.741379734397865 0.0118271828360936 
0.020644784891375646 -0.03244691997766444 -0.03410307212969724 -0.018945145818928998 0.009152520184134354 0.029244754590182234 2.094945712917692 3.7615570885781597 -1.5553864135972597 -0.7450797782980904 3.78650845342392 0.45815602266890304 -0.8722105770590427 -1.1304685447603184 2.300450553417382 -0.554601653377878 -0.8439548326143543 -0.21006931543925056 0.5584742501300889 12.466527645594399 -2.1822983240921143 0.1317806407105255 -1.3293004684323617 -7.276896956581829 1.034381923714912 -17.757217006257157 -0.6679165297993491 -9.65019379652659 3.2869510425224506 -16.699178426236667 74.66410828404801 -27.711721127184298 28.996392661311642 20.648706682577785 -5.680797478840694 92.33972810591429 6.698407237737602 -0.21604320489383164 0.12801745761621092 4.515579124679374 -0.15454650099672712 -1.6411330295557565 0.0008462939710170508 0.0036555350121077663 -56.25043513867177 -0.029605381050613066 0.00930628638522216 -56.240756287520014 -38.740257445038594 0.03954821652119704 0.004998333056103272 0.0343094337075242 -0.03565192836092844 -0.020535289724690577 -0.025182863786755726 0.021628658989136858 0.01610248356945459 -36.71001670771148 0.041604123401869135 -0.014395656317081751 0.003119456084677935 0.032945963227684914 0.03554948496728501 0.04386887432504375 0.02000460669446384 -0.026098959633166278 -19.737940443099973 -0.01274687082952597 -0.0025941601021383393 -0.005156810279974054 -0.007371462673402179 0.011206993702263147 -0.015207315508917104 0.03957638232191746 0.03309627048713679 24.018313197197802 0.01194368551876931 0.03556883771390654 28.85234317934141 0.030646640726535297 -0.030593798887684532 28.815406393444157 0.04526369249283867 -0.03472224189079079 6.718682767032019 1.8052366702308542 15.108011434757351 -71.2228160897916 -2.0133714722706877 -9.806646003668156 14.635342052501644 -14.252811742960455 -82.76906984358 -5.519226887143147 7.942107691248494 -11.026158801034354 -0.5082299285523898 0.020939778672071398 -8.126631328343462 -0.0008433542649996375 0.0026879548291403746 44.54676927541013 -0.020762525801145168 -0.027874889699262658 44.55132861899181 12.430100828776917 -0.016410614472317946 -0.007584475575088528 -0.014870249602283808 0.026337336455777995 -0.005866446245914267 0.03829583450649549 0.041271112458754804 -0.020810045220884536 11.145201407385002 -0.025706929270512373 0.0040283049826427934 -0.01152992103495654 -0.005881094620489249 0.0014656799169108095 0.036497016694456194 0.0125239222946902 -0.010801128023655111 4.779453860791392 0.010515891203418604 0.047733634154398456 -0.025932079878626117 0.016561506137361983 0.04747279490834373 -0.03835975402724297 0.02658549755821577 0.0007862707427204277 -5.618961141261638 0.001485540914576894 0.019469119683621187 -6.683670482814926 0.024857525113429705 0.006418942130499973 -6.746442307590769 -0.04817757604805558 0.013022521332867147 -0.012838988778049149 0.013034735123594949 0.00023537814850398806 8.012917340888542 3.496696900696698 -19.23498227141678 -0.0021386482335220853 10.421090002174648 -0.018510639642209895 -5.661548215790263 -15.654708299978958 3.1939040144015585 -0.033511534148756995 0.0046891354933605725 0.0010051216152661582 -0.037075284470240735 4.720916406845331 -0.014602027677355522 12.437016432623636 -8.24543248054064 6.890105303007037 -0.022947747929085358 46.37368703766807 0.009558429807604385 -4.287737350111643 -14.702228730212806 -3.7990545422939612 -0.016034533189315955 0.025132412249899507 0.01862015870853505 -0.015197344885964281 -10.717585681933663 -0.002086419526678598 
